Coordinates
version=1
nRows=8
nColumns=34
inDegrees=yes

Units are S.I. units (second, meters, Newtons, ...)
If the header above contains a line with 'inDegrees', this indicates whether rotational values are in degrees (yes) or radians (no).

endheader
time	pelvis_tilt	pelvis_list	pelvis_rotation	pelvis_tx	pelvis_ty	pelvis_tz	hip_flexion_r	hip_adduction_r	hip_rotation_r	knee_angle_r	ankle_angle_r	subtalar_angle_r	mtp_angle_r	hip_flexion_l	hip_adduction_l	hip_rotation_l	knee_angle_l	ankle_angle_l	subtalar_angle_l	mtp_angle_l	lumbar_extension	lumbar_bending	lumbar_rotation	arm_flex_r	arm_add_r	arm_rot_r	elbow_flex_r	pro_sup_r	arm_flex_l	arm_add_l	arm_rot_l	elbow_flex_l	pro_sup_l
      3.08333330	     -4.22973077	     -1.92102742	     -3.87396262	      0.31005718	      1.27110138	     -0.10112592	     12.73190366	     -4.56267429	     -5.01750710	     56.36689072	     -2.06112062	    -13.90762534	      0.00000000	     10.30440789	     -8.23190907	    -10.54733468	     55.20371531	     -3.49190213	     -5.16317521	      0.00000000	    -13.69143755	      2.74295938	      0.96319415	     94.03938746	     -6.90751161	     48.12347014	     82.21688996	     85.32077623	     76.37647603	    -24.51338374	     23.01987523	    103.35219682	     76.71433852
      3.10000000	     -3.10861328	     -2.24666428	     -4.25380969	      0.32734250	      1.27713017	     -0.10269807	     14.57820899	     -4.72303527	     -5.44870811	     58.86819414	     -2.48431389	    -12.43750390	      0.00000000	     11.27906532	     -8.97613881	    -10.89646537	     57.28233346	     -3.06282382	     -4.88730248	      0.00000000	    -15.51212502	      3.27091272	      0.72455866	     96.03756145	     -6.95778479	     48.40775600	     85.54357240	     85.74952899	     76.71572641	    -26.19814989	     21.73639789	    106.24023376	     77.32883363
      3.11666670	     -2.60234515	     -2.07858641	     -4.51473164	      0.34507084	      1.27390877	     -0.10360075	     16.34127740	     -5.34381062	     -5.36034659	     59.84199213	     -0.15909820	     -9.35325056	      0.00000000	     12.78038961	     -9.32446504	    -11.34200166	     57.42466467	     -0.49812401	     -4.00510696	      0.00000000	    -16.55756391	      3.31335112	      0.53013392	     98.42682337	     -6.86593505	     48.59505295	     87.51303994	     86.24589458	     77.96664784	    -27.67793344	     20.61065852	    108.43498849	     77.96311945
      3.13333330	     -2.31119388	     -1.87376435	     -4.84265840	      0.36070316	      1.27504927	     -0.10474845	     17.99800150	     -6.14227749	     -6.00557195	     59.07060979	     -1.18828948	     -7.53089684	      0.00000000	     13.81257022	     -9.70565651	    -12.29047629	     55.50427481	      1.80721350	     -2.83040565	      0.00000000	    -16.96926476	      3.28835335	      0.13585316	     99.65525560	     -6.88303317	     49.18187671	     88.52344860	     86.74255172	     78.72600971	    -29.12212270	     20.05749854	    109.50311794	     78.49868779
      3.15000000	     -2.07190458	     -1.70872218	     -4.45232671	      0.37693684	      1.27593264	     -0.10489458	     18.93018932	     -6.75169600	     -7.07187078	     56.04126212	     -1.29146684	     -4.99616278	      0.00000000	     14.82207439	    -10.18033646	    -13.04950223	     51.93338098	      0.94325652	     -2.41815643	      0.00000000	    -17.24802926	      3.35404579	     -0.92561882	     99.74885545	     -6.98555423	     49.96600788	     89.26791563	     87.31862553	     78.72714553	    -30.37312220	     19.99936429	    110.08044102	     79.06759230
      3.16666670	     -2.69887093	     -1.35141687	     -4.41213335	      0.39307902	      1.26420347	     -0.10434810	     20.38124253	     -7.44260022	     -7.81891338	     51.80345770	     -2.60709185	     -2.32887227	      0.00000000	     15.91792353	    -10.35997680	    -14.01027567	     46.90135774	      1.18157989	     -0.37028628	      0.00000000	    -17.01288661	      3.17679621	     -1.08910205	    101.01379988	     -6.39878519	     50.51547148	     88.65292061	     88.62784078	     79.69715426	    -31.16833879	     20.30187702	    110.26476509	     80.45558838
      3.18333330	     -3.60110544	     -1.14518818	     -4.21665004	      0.41041544	      1.25434871	     -0.10497447	     21.35220673	     -7.85926070	     -8.88793879	     46.34336094	     -4.78404127	     -0.10674283	      0.00000000	     16.59014518	    -10.30092467	    -14.50007488	     39.53527567	      0.06608647	      2.37132479	      0.00000000	    -16.23070352	      3.18527739	     -1.24467231	    101.36046187	     -6.27986804	     50.83715194	     88.98189104	     88.87305559	     79.65295804	    -31.51350017	     20.77161310	    109.74773558	     80.71389531
      3.20000000	     -4.57579048	     -1.48877945	     -3.95312384	      0.42308002	      1.24397957	     -0.10484793	     23.29666096	     -7.70715512	     -9.82121158	     41.79714669	     -7.21633824	      1.52820977	      0.00000000	     17.89449017	    -10.69172484	    -14.41195363	     32.72105245	     -1.11423657	      5.74001875	      0.00000000	    -15.69501069	      3.74170908	     -1.60561856	    101.67938300	     -6.49852366	     51.89267681	     89.79945227	     89.30436970	     79.88861440	    -32.47510835	     22.04636518	    109.57121138	     81.17158530
